<svg width="18" height="18" viewBox="0 0 18 18" fill="none" xmlns="http://www.w3.org/2000/svg">
<g clip-path="url(#clip0_606_35)">
<path d="M5.31957 17.1745C1.6329 15.6761 -1.23376 10.9414 0.532904 5.98024C2.1729 1.37868 7.26624 -1.20511 12.0996 0.559593C16.7796 2.27102 19.1929 7.47857 17.4129 12.1667C15.5396 17.1212 10.2729 18.8593 6.50624 17.614C6.59957 17.4475 6.6929 17.281 6.78624 17.1145C7.14624 16.4819 7.3729 15.8027 7.53957 15.1034C7.6729 14.5307 7.8329 13.9647 7.97957 13.392C7.99957 13.3787 8.02624 13.3654 8.04624 13.352C8.0729 13.3987 8.08624 13.4586 8.11957 13.4986C8.62624 14.0646 9.27957 14.3576 10.0262 14.3842C11.7462 14.4442 13.0396 13.6717 13.9729 12.2732C14.6196 11.3077 14.9262 10.2155 15.0329 9.07014C15.0796 8.57735 15.1062 8.09122 15.0329 7.59844C14.8862 6.46636 14.3996 5.49411 13.5929 4.68834C12.4929 3.58956 11.1329 3.06348 9.58624 3.0102C8.4929 2.97025 7.4329 3.12341 6.43957 3.56958C4.5129 4.42197 3.29957 5.86703 2.93957 7.9647C2.76624 8.98357 2.89957 9.98246 3.39957 10.9081C3.68624 11.4342 4.09957 11.8404 4.6529 12.0868C4.97957 12.2333 5.13957 12.16 5.23957 11.8071C5.29957 11.5873 5.3529 11.3676 5.40624 11.1478C5.44624 10.988 5.42624 10.8415 5.31957 10.715C4.60624 9.88923 4.5729 8.92363 4.7929 7.9314C5.07957 6.6395 5.81957 5.67391 7.00624 5.07458C7.85957 4.64172 8.77957 4.54183 9.71957 4.64838C10.3929 4.72163 11.0129 4.92807 11.5662 5.34095C12.2329 5.84039 12.6396 6.51298 12.7529 7.32541C12.9462 8.69056 12.7262 10.0091 12.1129 11.2544C11.8729 11.7405 11.5462 12.1667 11.0796 12.473C10.6062 12.786 10.0996 12.9059 9.54624 12.7527C8.8529 12.5529 8.4529 11.9669 8.57957 11.2544C8.65957 10.8082 8.80624 10.3754 8.92624 9.93584C9.0529 9.48301 9.1929 9.03018 9.29957 8.57069C9.35957 8.31764 9.38624 8.04461 9.3729 7.7849C9.33957 6.75271 8.36624 6.20665 7.46624 6.71276C6.91957 7.01242 6.6329 7.51853 6.48624 8.09788C6.30624 8.77713 6.3729 9.45637 6.5929 10.1156C6.64624 10.2688 6.64624 10.4086 6.6129 10.5685C6.27957 11.9469 5.95957 13.3321 5.62624 14.7105C5.43957 15.463 5.31957 16.2289 5.3329 17.008C5.3329 17.0679 5.32624 17.1345 5.31957 17.2211V17.1745Z" fill="#F56013"/>
</g>
<defs>
<clipPath id="clip0_606_35">
<rect width="18" height="18" fill="white"/>
</clipPath>
</defs>
</svg>
